<svg width="120" height="107" viewBox="0 0 120 107" fill="none" xmlns="http://www.w3.org/2000/svg">
<path d="M118.575 35.2288L112.363 9.555C111.061 4.2675 106.446 0.625 101.062 0.625H18.8792C13.5542 0.625 8.88004 4.32625 7.63754 9.555L1.42504 35.2288C0.00503892 41.2213 1.30671 47.3313 5.09337 52.1488C5.56671 52.795 6.21754 53.265 6.75004 53.8525V94.625C6.75004 101.088 12.075 106.375 18.5834 106.375H101.417C107.925 106.375 113.25 101.088 113.25 94.625V53.8525C113.783 53.3238 114.433 52.795 114.907 52.2075C118.693 47.39 120.054 41.2213 118.575 35.2288ZM100.884 12.3162L107.097 37.99C107.688 40.4575 107.156 42.925 105.618 44.8637C104.789 45.9212 103.014 47.625 100.056 47.625C96.4467 47.625 93.3109 44.7462 92.8967 40.9275L89.465 12.375L100.884 12.3162ZM65.9167 12.375H77.5134L80.7084 38.93C81.0042 41.2213 80.2942 43.5125 78.7559 45.2163C77.4542 46.7438 75.5609 47.625 73.135 47.625C69.1709 47.625 65.9167 44.1587 65.9167 39.9287V12.375ZM39.2325 38.93L42.4867 12.375H54.0834V39.9287C54.0834 44.1587 50.8292 47.625 46.4509 47.625C44.4392 47.625 42.605 46.7438 41.185 45.2163C39.7059 43.5125 38.9959 41.2213 39.2325 38.93ZM12.9034 37.99L18.8792 12.375H30.535L27.1034 40.9275C26.63 44.7462 23.5534 47.625 19.9442 47.625C17.045 47.625 15.2109 45.9212 14.4417 44.8637C12.8442 42.9837 12.3117 40.4575 12.9034 37.99ZM18.5834 94.625V59.1988C19.0567 59.2575 19.4709 59.375 19.9442 59.375C25.0917 59.375 29.7659 57.26 33.1975 53.7938C36.7475 57.3188 41.4809 59.375 46.865 59.375C52.0125 59.375 56.6275 57.26 60.0592 53.9112C63.55 57.26 68.2834 59.375 73.6084 59.375C78.5784 59.375 83.3117 57.3188 86.8617 53.7938C90.2934 57.26 94.9676 59.375 100.115 59.375C100.588 59.375 101.003 59.2575 101.476 59.1988V94.625H18.5834Z" fill="#34353E"/>
</svg>
